<?xml version="1.0" standalone="no"?>
<!DOCTYPE svg PUBLIC "-//W3C//DTD SVG 20010904//EN"
 "http://www.w3.org/TR/2001/REC-SVG-20010904/DTD/svg10.dtd">
<svg version="1.0" xmlns="http://www.w3.org/2000/svg"
 width="722.000000pt" height="722.000000pt" viewBox="0 0 722.000000 722.000000"
 preserveAspectRatio="xMidYMid meet">

<g transform="translate(0.000000,722.000000) scale(0.100000,-0.100000)"
fill="#000000" stroke="none">
<path d="M1516 4252 c-69 -22 -126 -79 -126 -123 0 -19 4 -40 9 -48 7 -10 -11
-23 -70 -53 -132 -66 -198 -164 -152 -226 39 -52 79 -67 179 -67 82 1 97 4
157 33 98 49 153 127 133 190 -10 31 -59 44 -114 30 -60 -15 -132 -82 -132
-124 0 -32 15 -54 39 -54 11 0 11 4 -3 19 -12 13 -16 27 -11 43 25 81 184 146
193 79 12 -85 -83 -170 -217 -192 -108 -18 -191 19 -191 85 0 66 92 167 180
198 23 8 39 6 70 -6 22 -9 53 -16 69 -16 33 0 77 32 67 48 -11 18 -67 24 -114
14 -37 -9 -44 -8 -52 8 -12 23 2 65 33 98 49 53 169 88 215 63 39 -21 23 -81
-21 -81 -10 0 -15 -4 -12 -10 9 -15 30 -12 53 8 32 27 36 58 13 81 -26 26
-122 28 -195 3z m44 -197 c0 -16 -52 -21 -85 -9 -25 10 2 24 48 24 26 0 37 -4
37 -15z"/>
<path d="M3006 4252 c-69 -22 -126 -79 -126 -123 0 -19 4 -40 9 -48 7 -10 -11
-23 -70 -53 -132 -66 -198 -164 -152 -226 39 -52 79 -67 179 -67 82 1 97 4
157 33 98 49 153 127 133 190 -10 31 -59 44 -114 30 -60 -15 -132 -82 -132
-124 0 -32 15 -54 39 -54 11 0 11 4 -3 19 -12 13 -16 27 -11 43 25 81 184 146
193 79 12 -85 -83 -170 -217 -192 -108 -18 -191 19 -191 85 0 66 92 167 180
198 23 8 39 6 70 -6 22 -9 53 -16 69 -16 33 0 77 32 67 48 -11 18 -67 24 -114
14 -37 -9 -44 -8 -52 8 -12 23 2 65 33 98 49 53 169 88 215 63 39 -21 23 -81
-21 -81 -10 0 -15 -4 -12 -10 9 -15 30 -12 53 8 32 27 36 58 13 81 -26 26
-122 28 -195 3z m44 -197 c0 -16 -52 -21 -85 -9 -25 10 2 24 48 24 26 0 37 -4
37 -15z"/>
<path d="M3960 4239 c-102 -20 -200 -91 -200 -145 0 -56 36 -80 155 -104 119
-24 142 -58 89 -128 -47 -60 -197 -112 -285 -97 -47 8 -66 37 -75 119 -4 31
-12 63 -19 72 -29 41 -93 -29 -80 -87 10 -45 51 -87 98 -101 23 -7 56 -20 72
-30 17 -10 37 -18 45 -18 9 1 6 6 -9 14 -21 12 -17 13 50 19 168 13 284 91
277 187 -4 47 -46 73 -142 90 -88 15 -136 40 -136 71 0 33 70 93 125 109 104
29 204 11 220 -39 9 -29 -12 -61 -40 -61 -13 0 -27 -5 -31 -12 -5 -8 2 -9 27
-5 34 7 79 47 79 71 0 31 -41 65 -91 75 -56 12 -66 12 -129 0z m-350 -341 c6
-29 19 -67 30 -85 24 -41 11 -42 -29 -3 -32 32 -48 84 -36 119 11 35 23 24 35
-31z"/>
<path d="M605 4226 c-70 -22 -119 -53 -177 -113 -98 -100 -124 -194 -70 -254
24 -27 34 -31 79 -31 61 0 116 29 138 72 17 33 19 60 5 60 -5 0 -10 -10 -10
-23 0 -55 -60 -97 -139 -97 -57 0 -71 14 -71 75 0 83 113 225 222 279 69 34
152 36 169 5 26 -50 -5 -128 -125 -311 -93 -144 -95 -150 -54 -146 20 2 32 9
34 20 6 45 131 191 242 281 67 55 164 111 182 105 5 -2 -25 -55 -66 -118 -85
-130 -116 -205 -112 -264 4 -51 27 -57 88 -26 52 26 45 38 -8 17 -22 -9 -42
-13 -46 -10 -15 15 -3 58 38 137 44 86 72 127 158 227 52 60 56 70 33 89 -12
10 -24 9 -61 -5 -55 -21 -197 -114 -272 -179 -30 -25 -55 -46 -57 -46 -2 0 12
34 32 75 64 135 45 196 -61 194 -28 0 -69 -6 -91 -13z"/>
<path d="M2095 4226 c-70 -22 -119 -53 -177 -113 -98 -100 -124 -194 -70 -254
24 -27 34 -31 79 -31 61 0 116 29 138 72 17 33 19 60 5 60 -5 0 -10 -10 -10
-23 0 -55 -60 -97 -139 -97 -57 0 -71 14 -71 75 0 83 113 225 222 279 69 34
152 36 169 5 26 -50 -5 -128 -125 -311 -93 -144 -95 -150 -54 -146 20 2 32 9
34 20 6 45 131 191 242 281 67 55 164 111 182 105 5 -2 -25 -55 -66 -118 -85
-130 -116 -205 -112 -264 4 -51 27 -57 88 -26 52 26 45 38 -8 17 -22 -9 -42
-13 -46 -10 -15 15 -3 58 38 137 44 86 72 127 158 227 52 60 56 70 33 89 -12
10 -24 9 -61 -5 -55 -21 -197 -114 -272 -179 -30 -25 -55 -46 -57 -46 -2 0 12
34 32 75 64 135 45 196 -61 194 -28 0 -69 -6 -91 -13z"/>
<path d="M3385 4100 c-4 -7 -2 -17 4 -23 16 -16 14 -42 -4 -57 -8 -7 -15 -18
-15 -24 0 -6 14 4 31 22 21 23 29 42 27 60 -3 28 -31 42 -43 22z"/>
<path d="M4620 3825 l0 -135 95 0 c95 0 95 0 95 25 0 24 -2 25 -70 25 l-70 0
0 30 0 30 60 0 c57 0 60 1 60 25 0 24 -3 25 -60 25 l-60 0 0 30 0 30 65 0 c63
0 65 1 65 25 0 25 -1 25 -90 25 l-90 0 0 -135z"/>
<path d="M4956 3937 c-15 -15 -26 -37 -26 -52 0 -29 48 -85 73 -85 8 0 22 -9
32 -20 15 -16 15 -22 5 -35 -15 -18 -40 -19 -75 -3 -22 10 -28 9 -36 -3 -14
-22 -11 -26 22 -38 82 -29 149 2 149 68 0 42 -14 59 -73 86 -29 14 -37 23 -35
39 2 16 10 21 33 20 17 0 37 -4 46 -8 11 -5 19 -1 23 10 10 25 -7 36 -63 42
-43 4 -53 1 -75 -21z"/>
<path d="M5210 3935 c0 -22 4 -25 35 -25 l35 0 0 -110 0 -110 25 0 25 0 0 110
0 110 35 0 c31 0 35 3 35 25 0 25 0 25 -95 25 -95 0 -95 0 -95 -25z"/>
<path d="M3034 3598 c-73 -13 -192 -76 -227 -119 -39 -50 -46 -105 -17 -141
12 -16 27 -28 33 -28 8 0 7 4 -1 12 -19 19 -14 72 11 109 28 42 99 90 175 120
69 27 242 38 303 20 50 -15 104 -63 131 -114 17 -34 20 -54 16 -111 -13 -199
-196 -353 -423 -358 -74 -1 -124 14 -156 48 l-23 25 70 72 c39 39 100 111 137
158 68 89 164 183 204 202 33 15 25 41 -14 45 -45 4 -91 -41 -264 -259 -79
-98 -146 -179 -150 -179 -7 0 -29 87 -29 114 0 8 -8 24 -18 36 l-18 22 -26
-31 c-49 -58 -87 -186 -69 -234 14 -36 44 -35 105 4 l48 30 22 -20 c39 -36 91
-51 182 -51 102 0 187 20 268 63 150 80 241 245 206 372 -15 54 -86 137 -139
165 -73 37 -221 50 -337 28z m-236 -505 c7 -12 12 -24 12 -26 0 -7 -82 -67
-92 -67 -19 0 -7 97 18 150 l27 55 12 -45 c6 -25 17 -55 23 -67z"/>
<path d="M4326 3429 c-49 -54 -133 -188 -167 -263 -11 -25 -20 -62 -21 -82 -4
-100 126 -79 225 36 51 61 38 62 -21 3 -72 -72 -152 -105 -166 -68 -14 37 31
116 176 313 38 51 66 97 63 102 -14 22 -46 7 -89 -41z"/>
<path d="M4730 3390 c-19 -12 -2 -44 27 -48 30 -5 48 22 28 42 -19 18 -33 20
-55 6z"/>
<path d="M805 3351 c-57 -24 -80 -107 -41 -150 18 -19 21 -20 37 -5 13 11 16
25 12 54 -5 36 -3 40 21 46 34 8 56 -10 56 -46 0 -27 -13 -47 -98 -150 l-34
-40 101 0 101 0 0 30 c0 28 -3 30 -35 30 l-35 0 30 41 c39 55 48 103 25 144
-26 49 -85 68 -140 46z"/>
<path d="M1163 3350 c-40 -17 -63 -68 -63 -139 0 -75 23 -122 70 -141 37 -15
95 -7 123 17 62 56 62 191 -1 247 -24 21 -96 30 -129 16z m89 -67 c26 -24 26
-123 -1 -147 -26 -23 -62 -17 -79 14 -15 30 -11 112 8 135 16 20 49 19 72 -2z"/>
<path d="M1525 3348 c-53 -29 -68 -83 -39 -139 15 -30 16 -30 35 -13 14 13 18
25 13 49 -7 38 14 60 50 51 57 -14 38 -77 -51 -175 l-55 -61 106 0 106 0 0 29
c0 27 -4 30 -35 33 l-35 3 26 39 c17 25 29 58 32 87 4 43 1 51 -26 79 -24 23
-39 30 -69 30 -21 0 -47 -6 -58 -12z"/>
<path d="M1884 3350 c-30 -12 -64 -58 -64 -86 0 -28 20 -74 32 -74 5 0 18 5
28 10 16 9 17 15 8 40 -7 23 -7 34 2 45 15 18 51 20 68 3 29 -29 4 -87 -76
-170 l-55 -58 106 0 107 0 0 30 c0 28 -3 30 -35 30 l-34 0 31 50 c43 69 43
123 -1 162 -32 29 -74 35 -117 18z"/>
<path d="M5619 3326 c-97 -34 -219 -171 -219 -246 0 -30 35 -60 70 -60 23 0
44 12 79 45 26 25 51 45 55 45 3 0 6 -13 6 -30 0 -20 8 -34 24 -45 21 -14 28
-14 58 -2 37 15 158 143 158 166 0 7 -19 -8 -42 -35 -92 -104 -141 -137 -157
-106 -12 22 4 60 64 152 45 68 49 90 19 90 -8 0 -23 9 -34 20 -23 23 -32 24
-81 6z m81 -38 c0 -22 -143 -201 -180 -226 -74 -50 -104 -2 -50 80 33 49 103
114 155 141 36 19 75 22 75 5z"/>
<path d="M3845 3294 c-45 -23 -123 -103 -145 -150 -27 -56 -26 -88 6 -113 34
-27 74 -27 127 0 46 24 167 135 167 154 0 7 -31 -18 -69 -55 -103 -100 -179
-128 -203 -75 -16 36 3 75 37 75 51 0 157 65 180 111 31 60 -27 91 -100 53z
m83 -26 c6 -33 -108 -118 -158 -118 -20 0 -20 2 9 39 34 42 118 104 135 98 6
-2 12 -11 14 -19z"/>
<path d="M5110 3294 c-45 -31 -102 -88 -131 -133 -35 -55 -38 -102 -7 -131 48
-44 136 -12 237 87 36 34 63 65 60 67 -3 3 -33 -22 -68 -55 -74 -70 -130 -101
-174 -97 -30 3 -32 5 -31 43 0 26 10 55 29 83 42 63 161 145 141 97 -3 -8 -9
-22 -12 -30 -4 -11 1 -15 19 -15 33 0 49 22 45 62 -3 31 -6 33 -43 36 -25 2
-49 -4 -65 -14z"/>
<path d="M6116 3279 c-27 -18 -68 -59 -92 -92 -36 -48 -44 -67 -44 -103 0 -74
60 -95 149 -51 46 23 178 143 168 153 -3 3 -30 -19 -61 -49 -71 -72 -135 -109
-178 -105 -29 3 -33 7 -36 36 -6 59 70 157 157 202 22 11 23 11 16 -6 -20 -50
-19 -56 11 -52 21 2 31 11 38 31 24 68 -49 88 -128 36z"/>
<path d="M4639 3269 c-37 -40 -99 -164 -99 -200 0 -54 41 -72 106 -44 42 17
154 122 154 143 0 9 -15 -2 -35 -25 -41 -49 -135 -113 -164 -113 -16 0 -21 6
-21 28 0 31 23 71 87 155 44 57 50 87 17 87 -9 0 -29 -14 -45 -31z"/>
<path d="M6560 3285 c-30 -16 -95 -99 -126 -162 -35 -67 -13 -105 52 -89 13 4
62 36 110 72 48 35 88 63 91 61 7 -8 -58 -141 -101 -206 -64 -95 -130 -127
-171 -81 -26 29 -38 24 -21 -9 25 -47 63 -53 126 -21 45 23 99 92 155 195 21
39 60 105 87 147 46 71 53 98 26 98 -6 0 -48 -35 -93 -79 -130 -123 -245 -191
-245 -146 0 13 16 34 124 160 23 27 36 51 32 60 -7 18 -14 18 -46 0z"/>
</g>
</svg>
