<svg class="svgShape svgShape--yellow" viewBox="0 0 532 638" fill="#e7cbef" xmlns="http://www.w3.org/2000/svg">
      <path d="M 527.128906 64.402344 C 503.277344 50.871094 484.113281 30.203125 472.75 5.359375 C 471.21875 2.042969 467.832031 0 464.226562 0 L 67.773438 0 C 64.167969 0 60.738281 2.042969 59.25 5.359375 C 47.886719 30.203125 28.769531 50.871094 4.871094 64.402344 C 1.894531 66.085938 0 69.171875 0 72.578125 L 0 565.421875 C 0 568.828125 1.894531 571.914062 4.871094 573.597656 C 28.722656 587.128906 47.886719 607.796875 59.25 632.640625 C 60.785156 635.953125 64.167969 638 67.773438 638 L 464.226562 638 C 467.832031 638 471.261719 635.953125 472.75 632.640625 C 484.113281 607.796875 503.234375 587.128906 527.128906 573.597656 C 530.105469 571.914062 532 568.828125 532 565.421875 L 532 72.625 C 532 69.171875 530.105469 66.085938 527.128906 64.402344 Z M 527.128906 64.402344 "></path>
</svg>