<svg class="svgShape svgShape--green" viewBox="0 0 533 605" fill="#bae8d4" xmlns="http://www.w3.org/2000/svg">
      <path d="M533 92.7855C533 83.5774 529.202 75.2945 523.107 69.3467C519.353 65.69 519.485 59.9184 523.195 56.2175C534.06 45.5115 537.505 27.3598 525.094 10.0451C524.52 9.20805 523.769 8.45898 522.93 7.88623C505.926 -4.22963 488.083 -1.18962 477.262 9.16394C473.685 12.6004 468.12 12.6886 464.542 9.20804C458.624 3.5246 450.586 0 441.664 0C432.786 0 424.704 3.5246 418.786 9.20804C415.252 12.6445 409.687 12.6445 406.154 9.20804C400.236 3.48054 392.197 0 383.276 0C374.354 0 366.316 3.5246 360.398 9.20804C356.864 12.6445 351.299 12.6445 347.766 9.20804C341.848 3.48054 333.81 0 324.888 0C316.011 0 307.928 3.5246 302.01 9.20804C298.477 12.6445 292.911 12.6445 289.378 9.20804C283.46 3.48054 275.421 0 266.5 0C257.578 0 249.54 3.5246 243.622 9.20804C240.088 12.6445 234.523 12.6445 230.99 9.20804C225.072 3.48054 217.034 0 208.112 0C199.235 0 191.152 3.5246 185.234 9.20804C181.701 12.6445 176.135 12.6445 172.602 9.20804C166.684 3.48054 158.646 0 149.724 0C140.846 0 132.764 3.5246 126.846 9.20804C123.312 12.6445 117.748 12.6445 114.214 9.20804C108.296 3.48054 100.258 0 91.3361 0C82.4586 0 74.3762 3.5246 68.4579 9.20804C64.8804 12.6445 59.3154 12.6004 55.738 9.16394C44.9614 -1.18962 27.0739 -4.27369 10.0698 7.88623C9.23064 8.45898 8.47985 9.20805 7.90569 10.0451C-4.50507 27.3598 -1.06012 45.5115 9.80481 56.2175C13.5148 59.8743 13.6474 65.69 9.89323 69.3467C3.79827 75.2945 0 83.6215 0 92.7855C0 101.949 3.75406 110.232 9.84902 116.18C13.559 119.837 13.559 125.652 9.84902 129.309C3.79822 135.257 0 143.54 0 152.704C0 161.868 3.75406 170.151 9.84902 176.099C13.559 179.755 13.559 185.571 9.84902 189.228C3.79822 195.175 0 203.458 0 212.622C0 221.786 3.75406 230.069 9.84902 236.017C13.559 239.674 13.559 245.489 9.84902 249.146C3.79822 255.094 0 263.377 0 272.541C0 281.705 3.75406 289.988 9.84902 295.935C13.559 299.592 13.559 305.408 9.84902 309.065C3.79822 315.012 0 323.295 0 332.459C0 341.623 3.75406 349.906 9.84902 355.854C13.559 359.511 13.559 365.326 9.84902 368.983C3.79822 374.931 0 383.214 0 392.378C0 401.542 3.75406 409.825 9.84902 415.772C13.559 419.429 13.559 425.245 9.84902 428.901C3.79822 434.849 0 443.132 0 452.296C0 461.46 3.75406 469.743 9.84902 475.691C13.559 479.348 13.559 485.163 9.84902 488.82C3.79822 494.768 0 503.051 0 512.215C0 521.423 3.79827 529.705 9.89323 535.653C13.6474 539.31 13.5148 545.082 9.80481 548.782C-1.06012 559.489 -4.50507 577.64 7.90569 594.955C8.47985 595.792 9.23064 596.541 10.0698 597.114C27.0739 609.23 44.9172 606.19 55.738 595.836C59.3154 592.4 64.8804 592.311 68.4579 595.792C74.3762 601.475 82.4145 605 91.3361 605C100.214 605 108.296 601.475 114.214 595.792C117.748 592.355 123.312 592.355 126.846 595.792C132.764 601.519 140.802 605 149.724 605C158.601 605 166.684 601.475 172.602 595.792C176.135 592.355 181.701 592.355 185.234 595.792C191.152 601.519 199.235 605 208.112 605C216.989 605 225.072 601.475 230.99 595.792C234.523 592.355 240.088 592.355 243.622 595.792C249.54 601.519 257.578 605 266.5 605C275.421 605 283.46 601.475 289.378 595.792C292.911 592.355 298.477 592.355 302.01 595.792C307.928 601.519 315.966 605 324.888 605C333.765 605 341.848 601.475 347.766 595.792C351.299 592.355 356.864 592.355 360.398 595.792C366.316 601.519 374.354 605 383.276 605C392.197 605 400.236 601.475 406.154 595.792C409.687 592.355 415.252 592.355 418.786 595.792C424.704 601.519 432.742 605 441.664 605C450.541 605 458.624 601.475 464.542 595.792C468.12 592.355 473.685 592.4 477.262 595.836C488.039 606.19 505.926 609.274 522.93 597.114C523.769 596.541 524.52 595.792 525.094 594.955C537.505 577.64 534.06 559.489 523.195 548.782C519.485 545.126 519.353 539.31 523.107 535.653C529.202 529.705 533 521.379 533 512.215C533 503.051 529.246 494.768 523.151 488.82C519.441 485.163 519.441 479.348 523.151 475.691C529.202 469.743 533 461.46 533 452.296C533 443.132 529.246 434.849 523.151 428.901C519.441 425.245 519.441 419.429 523.151 415.772C529.202 409.825 533 401.542 533 392.378C533 383.214 529.246 374.931 523.151 368.983C519.441 365.326 519.441 359.511 523.151 355.854C529.202 349.906 533 341.623 533 332.459C533 323.295 529.246 315.012 523.151 309.065C519.441 305.408 519.441 299.592 523.151 295.935C529.202 289.988 533 281.705 533 272.541C533 263.377 529.246 255.094 523.151 249.146C519.441 245.489 519.441 239.674 523.151 236.017C529.202 230.069 533 221.786 533 212.622C533 203.458 529.246 195.175 523.151 189.228C519.441 185.571 519.441 179.755 523.151 176.099C529.202 170.151 533 161.868 533 152.704C533 143.54 529.246 135.257 523.151 129.309C519.441 125.652 519.441 119.837 523.151 116.18C529.246 110.232 533 101.949 533 92.7855Z"></path>
    </svg>