<svg viewBox="0 0 532 632" fill="#bae8d4" xmlns="http://www.w3.org/2000/svg">
    <path id="shape" d="M532 76.4861C532 71.582 528.122 67.4877 523.207 67.3077C425.131 63.6634 365.519 0 266 0C166.481 0 106.869 63.6634 8.7928 67.3077C3.87773 67.4877 0 71.582 0 76.4861V560.103C0 563.477 1.89368 566.537 4.86978 568.202C28.7237 581.609 47.8879 602.08 59.2512 626.691C60.7843 629.975 64.1663 632 67.7737 632H464.226C467.833 632 471.26 629.975 472.749 626.691C484.112 602.08 503.231 581.609 527.13 568.202C530.106 566.537 532 563.477 532 560.103V76.4861V76.4861Z" />
</svg>