<svg viewBox="0 0 532 632" fill="#e7cbef" xmlns="http://www.w3.org/2000/svg">
      <path d="M261 0C223.013 0 186.954 10.2079 154.401 28.565C153.086 29.3098 151.596 29.7042 150.063 29.7042H93.5867C90.213 29.7042 87.0146 31.5881 85.5687 34.6549C74.9658 57.1303 56.7829 75.3122 34.3063 85.9147C31.2393 87.3605 29.3553 90.5588 29.3553 93.9323V175.29C29.3553 176.429 29.1363 177.525 28.6981 178.576C10.3401 223.527 0 274.48 0 328.5C0 382.52 10.3401 433.473 28.6981 478.423C29.1363 479.475 29.3553 480.57 29.3553 481.709V563.068C29.3553 566.441 31.2393 569.64 34.3063 571.085C56.7829 581.688 74.9658 599.87 85.5687 622.345C87.0146 625.412 90.213 627.296 93.5867 627.296H150.063C151.596 627.296 153.086 627.69 154.401 628.435C186.954 646.792 223.013 657 261 657C298.987 657 335.046 646.792 367.599 628.435C368.914 627.69 370.404 627.296 371.937 627.296H428.413C431.787 627.296 434.985 625.412 436.431 622.345C447.034 599.87 465.217 581.688 487.694 571.085C490.761 569.64 492.645 566.441 492.645 563.068V481.709C492.645 480.57 492.864 479.475 493.302 478.423C511.66 433.473 522 382.52 522 328.5C522 274.48 511.66 223.527 493.302 178.576C492.864 177.525 492.645 176.429 492.645 175.29V93.9323C492.645 90.5588 490.761 87.3605 487.694 85.9147C465.217 75.3122 447.034 57.1303 436.431 34.6549C434.985 31.5881 431.787 29.7042 428.413 29.7042H371.937C370.404 29.7042 368.914 29.3098 367.599 28.565C335.046 10.2518 298.987 0 261 0Z"></path>
    </svg>