<svg xmlns="http://www.w3.org/2000/svg" width="100%" height="100%" viewBox="0 0 242 63" className="Button__svg">
    <path d="M233.592 60.2841L233.591 60.2856C233.153 60.9604 232.439 61.36 231.68 61.36H10.18C9.42073 61.36 8.70676 60.9604 8.26887 60.2856C6.7404 57.9293 4.6602 55.9868 2.22891 54.6277C1.46111 54.1958 1 53.4414 1 52.64V9.72C1 8.91859 1.46114 8.16415 2.22899 7.7323C4.6603 6.37309 6.74051 4.43059 8.26898 2.0742C8.70689 1.39952 9.4208 1 10.18 1H231.68C232.439 1 233.153 1.39958 233.591 2.07437C235.119 4.43039 237.199 6.37264 239.63 7.7318C240.399 8.16355 240.86 8.91826 240.86 9.72V52.64C240.86 53.4417 240.399 54.1965 239.63 54.6282C237.198 55.9882 235.119 57.9408 233.592 60.2841Z" strokeWidth="2"></path>
</svg>