<?xml version="1.0" standalone="no"?>
<!DOCTYPE svg PUBLIC "-//W3C//DTD SVG 20010904//EN"
 "http://www.w3.org/TR/2001/REC-SVG-20010904/DTD/svg10.dtd">
<svg version="1.0" xmlns="http://www.w3.org/2000/svg"
 width="697.000000pt" height="697.000000pt" viewBox="0 0 697.000000 697.000000"
 preserveAspectRatio="xMidYMid meet">

<g transform="translate(0.000000,697.000000) scale(0.100000,-0.100000)"
fill="#000000" stroke="none">
<path d="M2460 5127 c-133 -41 -196 -80 -306 -191 -127 -127 -174 -213 -175
-318 -1 -83 20 -131 74 -166 33 -22 50 -26 106 -26 110 1 202 52 247 139 25
47 27 56 16 80 -16 34 -27 25 -24 -18 6 -67 -76 -147 -176 -172 -271 -69 -265
221 8 479 131 122 255 186 364 186 94 0 126 -28 126 -111 0 -92 -49 -195 -224
-467 -130 -203 -150 -238 -142 -258 6 -16 43 -18 80 -4 20 7 26 17 26 38 0 47
110 192 265 347 149 151 241 224 345 279 79 41 144 61 137 42 -3 -7 -47 -75
-97 -151 -191 -284 -261 -465 -218 -560 9 -20 18 -25 48 -25 41 0 155 52 164
75 8 21 -5 19 -70 -10 -100 -44 -117 -31 -90 68 39 139 188 380 332 537 88 96
97 111 84 144 -14 37 -50 42 -117 15 -129 -52 -385 -227 -529 -361 -34 -32
-64 -58 -67 -58 -4 0 10 27 29 61 64 108 96 197 101 280 5 74 4 77 -25 110
-30 34 -31 34 -124 36 -74 2 -108 -2 -168 -20z"/>
<path d="M4473 4923 c-18 -7 -16 -48 2 -63 21 -18 19 -31 -16 -84 -17 -26 -29
-50 -25 -53 9 -10 73 55 91 93 34 72 5 131 -52 107z"/>
<path d="M4697 4746 c-139 -131 -227 -224 -227 -241 0 -3 9 -4 19 0 16 5 24
-4 45 -50 41 -90 109 -106 216 -50 25 13 67 31 95 41 34 12 70 37 114 80 80
79 74 97 -7 22 -62 -57 -115 -88 -151 -88 -12 0 -21 1 -21 3 3 46 64 297 79
320 41 64 45 75 31 92 -7 8 -19 15 -26 15 -7 0 -82 -65 -167 -144z m93 27 c0
-5 -7 -51 -15 -103 -28 -184 -52 -230 -123 -230 -24 0 -42 9 -63 29 -56 57
-34 107 104 239 71 66 97 84 97 65z"/>
<path d="M3873 4751 c-33 -22 -111 -89 -173 -148 -79 -75 -110 -100 -105 -83
9 31 68 133 102 178 28 37 27 66 -2 70 -15 2 -46 -28 -123 -122 -171 -210
-319 -308 -376 -250 -18 18 -21 76 -6 105 7 13 21 19 43 19 63 1 203 80 237
135 25 40 26 77 2 98 -46 42 -149 -1 -241 -99 -137 -146 -148 -275 -27 -298
65 -12 178 49 280 151 60 61 67 59 36 -8 -31 -69 -23 -129 16 -129 7 0 43 39
80 88 74 94 231 258 240 249 3 -3 -13 -37 -36 -76 -52 -87 -69 -133 -70 -188
0 -49 19 -73 59 -73 27 0 92 40 120 73 20 24 29 21 36 -14 15 -69 111 -88 204
-41 54 27 202 157 222 194 22 40 -3 31 -44 -16 -57 -68 -180 -163 -227 -177
-73 -22 -115 20 -93 94 8 28 14 33 55 39 59 8 162 62 209 109 70 70 58 139
-23 139 -77 0 -184 -81 -262 -199 -100 -149 -222 -214 -200 -106 10 45 27 75
111 186 60 81 74 105 66 118 -18 28 -48 23 -110 -18z m425 -38 c7 -45 -143
-163 -207 -163 -33 0 -25 17 42 87 90 95 158 126 165 76z m-838 3 c0 -27 -47
-82 -100 -118 -54 -36 -127 -65 -137 -54 -14 14 92 131 152 168 35 21 85 24
85 4z"/>
<path d="M2115 3620 c-111 -17 -225 -61 -303 -119 -97 -72 -131 -185 -76 -250
31 -37 65 -45 40 -9 -53 75 20 187 174 267 111 58 210 82 340 81 123 0 163 -8
225 -45 87 -50 136 -143 136 -251 -1 -278 -275 -515 -598 -517 -69 0 -90 4
-138 27 -31 16 -63 38 -71 51 -15 23 -14 26 58 97 41 40 119 132 175 203 104
135 274 308 318 325 56 21 12 66 -53 54 -49 -9 -131 -93 -287 -294 -162 -210
-246 -310 -256 -305 -4 3 -17 47 -29 99 -25 113 -37 133 -68 117 -40 -21 -104
-156 -123 -258 -8 -40 -6 -60 5 -87 13 -31 19 -36 49 -36 23 0 55 13 97 41
l63 40 26 -25 c14 -14 49 -35 76 -48 44 -20 65 -23 180 -23 150 1 217 16 340
75 185 89 310 267 310 440 0 61 -5 85 -27 130 -33 66 -101 138 -167 173 -84
46 -276 68 -416 47z m-374 -682 c22 -47 22 -48 3 -69 -27 -30 -104 -82 -111
-75 -3 3 -8 27 -10 53 -5 52 18 129 59 193 l22 35 8 -45 c4 -25 17 -66 29 -92z"/>
<path d="M3341 3418 c-52 -53 -118 -149 -202 -298 -54 -95 -75 -123 -138 -176
-121 -104 -203 -131 -237 -78 -14 20 -15 33 -8 61 8 34 13 37 69 53 170 47
295 176 225 232 -51 42 -145 2 -244 -102 -72 -76 -102 -127 -112 -187 -7 -48
21 -88 75 -104 61 -18 130 10 239 98 l52 43 0 -44 c0 -56 32 -86 92 -86 52 0
97 22 158 77 l50 45 0 -50 c0 -62 17 -82 71 -82 52 0 103 27 174 92 57 52 58
53 53 23 -10 -48 14 -90 59 -108 65 -26 129 -3 239 84 l61 49 0 -42 c0 -96
115 -119 188 -38 11 12 36 35 57 51 l36 29 0 -37 c0 -28 7 -43 27 -60 45 -39
92 -25 175 53 43 40 47 42 42 19 -11 -59 45 -115 115 -115 40 1 109 34 176 86
l57 45 0 -34 c0 -67 60 -86 134 -43 23 13 84 58 136 100 52 42 96 72 98 68 4
-14 -64 -167 -110 -245 -94 -161 -190 -217 -258 -152 -14 14 -29 25 -33 25
-17 0 -4 -34 23 -62 28 -28 36 -30 80 -26 99 10 174 87 287 298 37 69 93 165
125 214 51 78 57 91 45 104 -21 21 -50 7 -91 -43 -78 -95 -315 -275 -363 -275
-51 0 -16 62 125 220 40 45 71 87 69 93 -5 16 -51 21 -76 7 -11 -5 -57 -55
-101 -110 -122 -151 -237 -239 -315 -242 -45 -2 -65 17 -65 59 0 51 35 111
109 183 57 57 128 106 139 95 2 -2 -4 -17 -12 -34 -21 -39 -20 -48 3 -56 27
-8 50 4 66 36 21 39 19 65 -6 90 -17 17 -29 20 -61 15 -69 -11 -99 -34 -264
-203 -143 -146 -165 -164 -190 -161 -59 6 -43 64 63 228 56 86 60 110 19 118
-9 2 -28 14 -41 28 -28 28 -35 29 -102 9 -72 -21 -158 -89 -243 -189 -110
-130 -240 -226 -308 -226 -35 0 -62 27 -62 61 0 40 50 130 100 180 46 46 137
106 146 96 3 -3 -2 -19 -11 -36 -19 -38 -13 -51 25 -51 23 0 33 7 45 30 32 61
8 110 -54 110 -71 0 -129 -42 -265 -193 -89 -98 -218 -197 -257 -197 -11 0
-24 11 -30 24 -16 34 12 90 104 213 43 56 77 106 77 112 0 20 -49 24 -76 6
-14 -9 -54 -60 -89 -114 -101 -155 -222 -246 -294 -219 -21 7 -23 12 -17 49 4
23 14 55 23 73 24 48 140 219 231 341 61 83 79 112 70 122 -20 24 -54 14 -97
-29z m1084 -208 c8 -12 -117 -189 -187 -265 -58 -64 -131 -104 -153 -85 -43
36 -1 127 105 231 101 99 213 155 235 119z m-1391 -28 c17 -27 -61 -112 -136
-149 -63 -32 -98 -39 -98 -20 0 19 105 128 150 156 36 21 75 27 84 13z"/>
<path d="M3610 3335 c-17 -21 -3 -54 27 -61 30 -8 56 5 62 31 7 37 -63 61 -89
30z"/>
<path d="M2527 2063 c-4 -3 -7 -89 -7 -190 l0 -183 120 0 c73 0 120 4 120 10
0 6 -42 10 -105 10 l-105 0 0 80 0 80 90 0 c53 0 90 4 90 10 0 6 -37 10 -90
10 l-90 0 0 80 0 80 100 0 c60 0 100 4 100 10 0 11 -212 14 -223 3z"/>
<path d="M3424 2031 c-49 -21 -71 -103 -40 -147 20 -27 28 -13 15 25 -15 43 8
97 46 107 39 10 83 -13 95 -50 19 -58 -4 -103 -110 -219 l-52 -57 106 0 c64 0
106 4 106 10 0 6 -34 10 -81 10 l-81 0 51 56 c92 100 116 184 68 239 -24 29
-86 42 -123 26z"/>
<path d="M3714 2024 c-46 -23 -75 -81 -75 -154 -1 -112 62 -187 150 -177 85 9
131 70 131 172 0 73 -22 121 -69 152 -40 27 -92 29 -137 7z m116 -19 c42 -22
64 -69 65 -140 0 -80 -25 -125 -83 -145 -37 -13 -45 -12 -77 3 -70 33 -95 143
-52 227 33 67 86 86 147 55z"/>
<path d="M4011 2014 c-27 -22 -31 -32 -31 -74 0 -30 5 -52 15 -60 21 -17 29
-7 16 18 -18 34 -13 71 14 97 30 30 64 32 99 4 56 -44 25 -137 -84 -244 -27
-27 -50 -53 -50 -57 0 -4 47 -8 105 -8 63 0 105 4 105 10 0 6 -34 10 -81 10
l-81 0 56 67 c86 104 102 152 71 213 -29 57 -102 68 -154 24z"/>
<path d="M4279 2011 c-33 -33 -40 -92 -15 -127 20 -26 29 -13 16 22 -22 56 11
114 64 114 71 0 101 -58 68 -133 -11 -24 -49 -76 -86 -114 -36 -39 -66 -73
-66 -77 0 -3 48 -6 106 -6 80 0 105 3 102 12 -3 9 -26 12 -76 10 -40 -2 -72
-1 -72 4 0 4 20 30 44 58 66 78 86 116 86 164 0 61 -41 102 -100 102 -33 0
-48 -6 -71 -29z"/>
<path d="M3070 1941 c0 -44 -3 -51 -20 -51 -11 0 -20 -4 -20 -10 0 -5 9 -10
20 -10 19 0 20 -7 20 -90 0 -73 3 -90 15 -90 12 0 15 17 15 90 l0 90 30 0 c17
0 30 5 30 10 0 6 -13 10 -29 10 -28 0 -30 2 -33 47 -4 66 -28 70 -28 4z"/>
<path d="M2860 1890 c-37 -37 -25 -68 34 -96 22 -11 44 -26 50 -36 22 -36 -38
-63 -85 -38 -10 6 -19 7 -19 2 0 -35 86 -45 114 -13 10 11 16 31 14 48 -2 22
-12 33 -50 51 -50 24 -61 48 -33 72 12 10 21 10 42 1 32 -15 45 -4 19 15 -28
20 -63 17 -86 -6z"/>
</g>
</svg>
